<?xml version="1.0" encoding="UTF-8"?><svg id="Layer_1" xmlns="http://www.w3.org/2000/svg" viewBox="0 0 200 200"><defs><style>.cls-1{fill:#7aa7ed;}.cls-1,.cls-2,.cls-3,.cls-4{stroke-width:0px;}.cls-2{fill:#2d4771;}.cls-3{fill:#113671;}.cls-4{fill:#ff5832;}</style></defs><polygon class="cls-4" points="78.69 51.88 93.17 -.06 123.4 54.15 178.19 35.16 173.25 71.16 197.88 78.55 175.06 92.47 198.75 97.91 172.42 116.84 189.63 137.85 154.44 137.17 186.47 171.45 144.6 171.45 121.37 199.94 98.68 179.58 61.26 189.04 64.61 172.03 29.5 159.66 58.38 142.92 12.9 124.28 53.7 116.65 1.25 84.44 46.74 87.47 24.84 36.43 78.69 51.88"/><polygon class="cls-2" points="80.48 129.38 81.37 132.19 53.36 126.7 72.81 126.31 80.48 129.38"/><polygon class="cls-2" points="144.8 114.14 181.26 144.81 182.92 151.52 116.54 119 144.8 114.14"/><path class="cls-1" d="M149.06,78.56s34.4,3.68,34.89,11.39c.49,7.7-8.11,14.9-8.11,14.9,0,0-5.52,3.59-8.28,4.56-2.76.97-49.98,11.52-49.98,11.52l-45.43,5.86h-24.18s-10.71,2.85-12.66,0-3.57-4.52-1.62-6.53c1.95-2.01,13.79-8.37,13.79-8.37l15.9-5.53,14.77-5.19,63.77-21.1s4.24-1.86,7.14-1.51Z"/><polygon class="cls-2" points="58.04 117.59 38.21 121.26 16.03 110.86 23 108.77 58.04 117.59"/><polygon class="cls-2" points="37.04 66.45 47.84 66.45 118.91 98.08 94.52 106.47 37.04 66.45"/><path class="cls-3" d="M154.44,84.42l-1.86,2.88s-.68,1.33,1.86,1.11,14.38-1.98,14.38-1.98l6.24-2.01-7.98-2.68h-2.98l-9.67,2.68Z"/><ellipse class="cls-3" cx="141.98" cy="88.71" rx="1.28" ry="1.81" transform="translate(-10.42 19.4) rotate(-7.54)"/><ellipse class="cls-3" cx="137.77" cy="90.03" rx="1.28" ry="1.81" transform="translate(-10.63 18.86) rotate(-7.54)"/><ellipse class="cls-3" cx="133.55" cy="91.35" rx="1.28" ry="1.81" transform="translate(-10.84 18.32) rotate(-7.54)"/><ellipse class="cls-3" cx="129.38" cy="92.57" rx="1.28" ry="1.81" transform="translate(-11.03 17.78) rotate(-7.54)"/><ellipse class="cls-3" cx="125.17" cy="93.89" rx="1.28" ry="1.81" transform="translate(-11.24 17.24) rotate(-7.54)"/><ellipse class="cls-3" cx="120.95" cy="95.21" rx="1.28" ry="1.81" transform="translate(-11.45 16.7) rotate(-7.54)"/><ellipse class="cls-3" cx="87.14" cy="105.75" rx="1.28" ry="1.81" transform="translate(-13.13 12.35) rotate(-7.54)"/><ellipse class="cls-3" cx="82.92" cy="107.07" rx="1.28" ry="1.81" transform="translate(-13.34 11.81) rotate(-7.54)"/><ellipse class="cls-3" cx="78.7" cy="108.39" rx="1.28" ry="1.81" transform="translate(-13.55 11.27) rotate(-7.54)"/><ellipse class="cls-3" cx="74.05" cy="109.69" rx="1.28" ry="1.81" transform="translate(-13.76 10.67) rotate(-7.54)"/><ellipse class="cls-3" cx="69.83" cy="111.01" rx="1.28" ry="1.81" transform="translate(-13.97 10.13) rotate(-7.54)"/><ellipse class="cls-3" cx="65.62" cy="112.33" rx="1.28" ry="1.81" transform="translate(-14.18 9.59) rotate(-7.54)"/></svg>