<?xml version="1.0" encoding="UTF-8"?><svg id="Layer_1" xmlns="http://www.w3.org/2000/svg" viewBox="0 0 70 70"><defs><style>.cls-1{fill:#0f35ff;}.cls-1,.cls-2{stroke-width:0px;}.cls-2{fill:#1b9921;}</style></defs><ellipse class="cls-1" cx="34.23" cy="35" rx="33.96" ry="33.89"/><path class="cls-2" d="M50.15,4.86l-3.78,2.42h-5.15l-2.06,4.51,3.14,1.91,4.85-1.53,9.12,2.42,3.44-2.87s-5.24-5.14-9.57-6.86Z"/><path class="cls-2" d="M63.6,16.68l-6.95,4.45-7.53-1.46-1.85-2.74-6.25.32-3.95,3.44.64,7.9,9.82,4.33,3.32-1.46,3.64,2.29-.64,3.95,4.4,9.11-.51,4.14,3.78,5.22s17-18.59,2.08-39.49Z"/><path class="cls-2" d="M22.48,3.3l2.16,3.37,6.21.63-.42,3.36-3.58,1.26-3.37,5.78-5.37,3.36h-1.37l-.63,5.36-1.26-3.26-1.58-1.16-3.05.32-.42,2.21,2.32,2.63-.53,4.73-6.95-4.31-1.27-6.67S8.9,8.02,22.48,3.3Z"/><polygon class="cls-2" points="16.53 29.75 18.58 34.28 26.74 34.28 29.79 39.64 33.79 40.16 33.79 46.05 29.37 49.63 28.95 53.51 25 56.56 24.21 62.66 20.52 61.29 18.52 56.35 18.53 44.69 12.73 43.84 10.21 39.85 10.21 36.2 16.53 29.75"/></svg>