<?xml version="1.0" encoding="UTF-8"?><svg id="Layer_1" xmlns="http://www.w3.org/2000/svg" viewBox="0 0 200 200"><defs><style>.cls-1{opacity:.5;}.cls-1,.cls-2,.cls-3,.cls-4,.cls-5,.cls-6,.cls-7,.cls-8,.cls-9,.cls-10,.cls-11,.cls-12,.cls-13{stroke-width:0px;}.cls-1,.cls-5{fill:#bf7649;}.cls-2{fill:#3a75b1;}.cls-3{fill:#403732;}.cls-4{fill:#bf4a65;}.cls-6{fill:#bf8865;}.cls-7{fill:#c45375;}.cls-8{fill:#fffce8;}.cls-9{fill:#ffe1cf;}.cls-10{fill:#ffefb9;}.cls-11{fill:#fff2e1;}.cls-12{fill:#ffb587;}.cls-13{fill:#ff5832;}</style></defs><path class="cls-5" d="M65.88,64.11c-.64,3.59,24.46,9.76,42.1,11.84,11.54,1.36,20.98,1.09,30.44-2.41,4.2-1.55,9.13-3.38,8.96-5.2-.68-7.18-80.37-10.51-81.49-4.24Z"/><path class="cls-12" d="M130.28,139.68s-4.27,10.4-6.15,10.6,5.69-1.6,5.69-1.6l.46-9.01Z"/><polygon class="cls-12" points="84.09 146.47 84.87 145.82 88.68 151.06 84.09 146.47"/><polygon class="cls-13" points="78.69 51.88 93.17 -.06 123.4 54.15 178.19 35.16 173.25 71.16 197.88 78.55 175.06 92.47 198.75 97.91 172.42 116.84 189.63 137.85 154.44 137.17 186.47 171.45 144.6 171.45 121.37 199.94 98.68 179.58 61.26 189.04 64.61 172.03 29.5 159.66 58.38 142.92 12.9 124.28 53.7 116.65 1.25 84.44 46.74 87.47 24.84 36.43 78.69 51.88"/><path class="cls-12" d="M64.2,123.31c-.72.89-4.27.17-6.81-1.52-1.83-1.22-2.7-2.64-3.69-4.3-1.05-1.76-1.58-3.19-3.12-8.6-1.79-6.3-1.79-6.92-1.33-7.64,1.85-2.9,8.5-3.37,10.18-1.41.55.64.21,1.13.39,3.52.11,1.45.25,1.41,1.1,5.56.43,2.09.84,4.09,1.27,6.69.44,2.6.43,2.97.79,4.07.79,2.38,1.64,3.11,1.22,3.64Z"/><path class="cls-12" d="M148.93,120.15c.72.89,4.27.17,6.81-1.52,1.83-1.22,2.7-2.64,3.69-4.3,1.05-1.76,1.58-3.19,3.12-8.6,1.79-6.3,1.79-6.92,1.33-7.64-1.85-2.9-8.5-3.37-10.18-1.41-.55.64-.21,1.13-.39,3.52-.11,1.45-.25,1.41-1.1,5.56-.43,2.09-.84,4.09-1.27,6.69-.44,2.6-.43,2.97-.79,4.07-.79,2.38-1.64,3.11-1.22,3.64Z"/><path class="cls-10" d="M48.04,52.98c-.71-7.71,29.63-20.76,56.32-20.79,25.5-.03,27.78,7.54,48.54,15.51,4.86,1.86,11-2.1,12.44,0,2.03,2.95-5.54,11.37-13.92,16.38-1.14.68-2.29,1.3-3.45,1.85-10.03,4.82-20.48,5.06-29.73,5.28-8.42.2-15.88-.93-30.81-3.17-11.61-1.75-17.27-3.2-22.81-5.28-9.4-3.54-16.25-6.12-16.59-9.77Z"/><path class="cls-10" d="M147.12,86.07l.85-20.15,7.94-4.91,5.32,26.11s1.76,14.86-2.55,13.81c-4.31-1.05-7.06-3.5-7.06-3.5l-4.51-11.36Z"/><path class="cls-10" d="M42.23,97.44c.06-.96,2.38-.89,3.92-2.45,1.87-1.89,1.08-4.64.59-8.04-.2-1.34-.13-6.14,0-15.73.07-4.82.19-7.28.39-9.62.43-4.96-.09-5.92.78-6.56,2.87-2.11,13.46,1.72,16.44,8.51,1.1,2.51.42,6.31-.94,13.9-.97,5.41-1.46,8.12-2.46,10.78-.72,1.92-.75,4.02-1.61,5.9-.19.41-.61,1.28-.28,2.19.31.87,1.01,1,1.04,1.52.06,1.03-2.62,2.07-4.53,2.53-.97.23-3.7.78-7.37,0-2.05-.44-6.05-1.65-5.97-2.92Z"/><path class="cls-12" d="M119.03,166.09c-9.31,2.87-12.9,2.04-14.42.67-.57-.51-1.03-1.26-2.85-3.01-1.34-1.29-2.02-1.77-3.79-3.35,0,0-1.64-1.45-3.41-3.18-4.36-4.23-4.86-5.58-7.02-6.02-1.56-.32-1.66.32-3.6.17-3-.24-4.84-1.91-7.97-4.35-5.48-4.27-6.19-3.98-8.16-5.85-2.27-2.16-4.06-14.95-4.77-19.05-.26-1.52-1.18-5.23-3.03-12.67-.66-2.67-1.27-5.06-1.52-8.45-.22-2.95-.06-5.32.04-6.78.07-.95.29-3.91,1.18-8.18,1.15-5.57,1.77-5.43,2.78-10.6.8-4.12,1.2-6.18,1.06-8.49-.19-3.25-1.01-4.99.04-5.7,1.13-.77,3.15.53,6.73,1.74,1.95.66,2.38.62,10.54,2.01,10,1.7,8.5,1.61,14,2.48,7.12,1.13,10.68,1.69,15.33,1.98,3.38.21,7.02.11,14.3-.1,14.44-.41,20.42-1.23,22.82-4.09.28-.33.99-1.27,1.37-1.14.68.23-.45,3.71-1.03,6.67-.63,3.2-2.14,10.95,1.22,17.27,3.13,5.88,4.69,8.83,5.02,9.32.05.07.22.33.34.7.34,1.05-.06,1.99-.19,2.31-.58,1.44-.55,3.02-.99,4.49-1.22,4.14-.52,4.03-1.6,7.41-1.13,3.53-2.08,4.25-2.36,7.21-.13,1.37.07,1.3.04,3.22-.06,3.52-.78,6.21-1.56,9.09-.86,3.15-1.29,4.72-2.32,6.81-.48.97-2.02,3.94-5.06,7.14-2.02,2.13-3.02,3.2-4.91,4.06-1.26.58-2.8.97-5.88,1.76-2.88.74-3.4.73-4.19,1.34-1.4,1.06-1.44,2.34-2.23,4.4-.54,1.4-1.5,3.4-3.39,5.66"/><path class="cls-9" d="M113.22,82.56c.01-1.26.8-2.18.98-2.39,1.19-1.39,3.06-1.36,6.53-2.31,3.72-1.02,3.69-1.64,7.15-2.39,2.65-.58,3.97-.87,5.27-.48,4.28,1.27,5.95,7.85,4.65,8.69-.59.38-2.02-.29-2.59-.56-1.36-.64-1.49-1.25-2.41-1.51-1.12-.32-1.97.26-3.49.8-1.44.51-1.14.15-6.53.96-1.18.18-2.75.36-5.9.72-1.37.16-2.81.31-3.4-.4-.27-.33-.27-.73-.27-1.12Z"/><path class="cls-9" d="M97.94,82.16c-.01-1.19-.75-2.06-.93-2.27-1.12-1.32-2.88-1.29-6.14-2.19-3.5-.97-3.48-1.55-6.73-2.27-2.49-.55-3.74-.82-4.96-.45-4.02,1.2-11.4,11.92-10.17,12.71.56.36,6.93-1.71,7.47-1.96,1.28-.6,2.93-1.83,3.81-2.09,1.05-.31,1.69-1.03,3.12-.52,1.35.48.47-.98,5.53-.21,1.11.17,2.59.34,5.55.68,1.29.15,2.64.29,3.2-.38.26-.31.26-.69.25-1.06Z"/><path class="cls-3" d="M92.33,92.02c.52-.83-3.01-4.81-7.51-4.94-4.71-.14-8.62,3.99-8.13,4.83.36.61,2.86-.8,7.76-.77,4.95.03,7.49,1.51,7.88.88Z"/><path class="cls-3" d="M135.18,92.02c.52-.83-3.01-4.81-7.51-4.94-4.71-.14-8.62,3.99-8.13,4.83.36.61,2.86-.8,7.76-.77,4.95.03,7.49,1.51,7.88.88Z"/><path class="cls-1" d="M141.11,94.64c-.35-2.76-.07-3.62-.44-6.01-.38-2.46-1.08-4.19-2.04-6.48-2.67-6.44-4.85-7.93-3.96-9.63.72-1.38,2.45-.65,6.17-2.33,4.14-1.87,5.77-4.34,6.62-3.85.64.37-.05,1.91-.52,4.66-.6,3.49-.39,6.18-.24,8.12.18,2.27.45,5.72,2.3,9.59,1.38,2.89,2.75,4.14,3.37,7.35.27,1.38.25,2.36.23,3.97-.03,1.82-.12,7.44-2.57,13.55-.44,1.1-.94,2.17-1.27,3.88-.47,2.43-.23,4.29-.16,5.05.36,3.81-.9,7.28-2.35,11.33,0,0-2.06,5.72-6.29,11.21-.81,1.04-1.86,2.27-3.56,3.36-.41.26-1.55.96-3.21,1.52-2.64.89-3.63.43-6.39,1.49-1.36.52-1.89.93-2.26,1.28-.49.49-.66.97-1.37,2.86-.9,2.42-.87,2.38-.92,2.45-.99,1.28-2.55.91-6.23,1.9-2.12.57-1.66.7-4.54,1.55-3.66,1.07-5.17,1.08-5.88,1.05-.34-.01-1.75-.08-3.46-.61-4.61-1.44-7.36-5.02-7.12-5.28.16-.17,1.46,1.13,4.16,2.13,2.8,1.04,5.24,1.07,6.1,1.08,5.74.05,10.03-2.74,11.53-3.74,3.18-2.12,2.76-3.04,5.96-4.77,2.77-1.49,3.71-1.14,6.77-2.54.93-.43,4.6-2.18,7.13-5.03,1.9-2.14,2.73-4.4,3.83-10.72.71-4.07,1.26-8.28,1.89-16.02.99-12.27.62-14.44.12-16.18-.34-1.19-1.04-3.18-1.42-6.18Z"/><path class="cls-6" d="M117.09,95.28c.45-.6,5.35,3.35,11.84,3.35,4.69,0,7.72-2.07,8.18-1.37.41.62-1.63,2.75-4.23,3.69-2.43.87-4.64.44-6.45.09-4.05-.79-6.5-2.84-7.6-3.78-.74-.64-1.96-1.67-1.73-1.97Z"/><path class="cls-6" d="M91.69,94.76c-.67-.63-4.18,3.21-9.33,3.52-3.93.23-6.5-1.73-6.93-1.12-.42.6,1.65,3,4.52,3.69,1.82.44,3.33.04,4.81-.34,1.04-.27,4.53-1.23,6.35-4.12.35-.56.86-1.36.58-1.63Z"/><path class="cls-6" d="M108.13,83.77c-.19-.02-1.11,3.15-.93,6.94.17,3.45,1.2,6.36,1.39,6.33.1-.02-.03-.84-.25-4.26-.1-1.59-.17-2.72-.21-4.03-.1-3.4.13-4.96,0-4.98Z"/><path class="cls-6" d="M100.61,84.26c.2-.01.93,2.84.68,6.07-.26,3.34-1.5,6.07-1.69,6.03-.14-.03.33-1.55.59-4.71.1-1.23.16-2.59.25-4.67.1-2.28.09-2.71.17-2.71Z"/><path class="cls-6" d="M97.27,105.67c.14-.36,1.3-.39,2.16-.19.96.23,1.54.77,2.32,1.51.49.45.5.58.46.64-.08.13-.5,0-1.31-.19-1.86-.44-2.16-.38-2.75-.75-.1-.06-1.03-.65-.89-1.02Z"/><path class="cls-6" d="M107.75,107.86c-.17-.23.96-1.46,2.54-2.04,1.1-.4,2.74-.61,3.09-.08.19.29,0,.79-.34,1.06-.5.4-.97.02-2.2.26-.68.14-.79.3-2.11.64-.89.22-.95.18-.97.15Z"/><path class="cls-6" d="M113.84,101.15s.06.03.18.1c0,0,.09.05.16.09,3.29,1.98,2.91,4.82,2.91,4.82-.02.15-.33,1.88-1.94,2.71-1.27.66-2.88.51-2.96.23-.08-.26,1.2-.41,2.11-1.47.95-1.1.9-2.46.89-2.79-.07-1.91-1.45-3.65-1.35-3.69Z"/><path class="cls-6" d="M96.91,101.06c-.16-.14-3.32,1.14-3.72,3.74-.22,1.42.4,3.1,1.8,3.91,1.22.7,2.81.61,2.9.35.09-.26-1.34-.49-2.31-1.71-.95-1.2-.84-2.58-.82-2.79.2-2.14,2.29-3.37,2.15-3.49Z"/><path class="cls-6" d="M118.15,103.36c.2-.11,7.2,6.68,10.57,16.78,2.41,7.21,2.07,13.44,1.86,13.46-.19.02-.47-5.05-2.93-12.04-1.41-4.01-3-7.1-3.99-9.01-3.14-6.05-5.65-9.12-5.52-9.19Z"/><path class="cls-6" d="M92.08,105.91s-5.9,5-8.78,13.23c-2.96,8.44-1.24,16.01-1.06,16.01.14,0-.18-4.59,1.2-11.51.51-2.53.98-4.85,2.13-7.65,2.58-6.29,6.52-10.08,6.52-10.08Z"/><path class="cls-6" d="M92.58,134.04c.25-.46,5.25,2.56,12.05,2.92,7.43.39,12.77-2.61,13.09-1.95.24.5-2.77,2.44-6.11,3.36-3.04.83-5.58.61-7.25.44-.73-.07-4.14-.45-8.02-2.33-1.53-.74-3.94-2.11-3.76-2.43Z"/><path class="cls-6" d="M93.66,124.42c-.16-.07.78-5.05,4.72-6.53.91-.34,2.85-.82,4.96-.63.84.07,1.51.24,2.72.16,1.16-.07,1.38-.28,2.78-.47,1.7-.24,2.61-.37,3.54-.05.27.09,1.05.39,2.54,2.48,1.43,2,2.29,3.93,2.13,4-.19.09-1.05-2.64-3.9-4.05-.41-.2-2.23-1.07-4.49-.84-1.25.12-1.13.43-2.54.63-2.13.3-2.85-.34-5.08-.16-.34.03-1.56.13-2.72.58-3.46,1.33-4.53,4.96-4.67,4.9Z"/><path class="cls-4" d="M92.38,130.74l8.07-9.49s8.35-1.6,10.14-.02,7.56,9.52,7.56,9.52h-25.77Z"/><path class="cls-11" d="M98.99,122.84s.31-1.99,3.89-2.34,5.54-.77,6.82-.36,2.5,2.98,2.5,2.98c0,0-3.08,1.37-6.08,1.29s-5.54.25-6.33-.66"/><path class="cls-8" d="M95.03,174.86s-2.61-6.85-.59-9.62,3.84-3.71,3.84-3.71l4.8,3.85,3.28,2.64-11.34,6.84Z"/><path class="cls-8" d="M125.93,175.37s3.13-8.66,1.25-11.49-4.63-4.1-4.63-4.1l-3.03,5.37-.42,1.24-4.14,1.37,4.07,1.77,6.89,5.84Z"/><polygon class="cls-7" points="99.27 172.68 107.01 168.19 114.18 168.01 118.98 169.87 118.98 175.37 99.27 175.62 99.27 172.68"/><path class="cls-2" d="M97.12,160.33l-34.74,8.19s-8.34,5.48-7.12,6.76,9.05.35,9.05.35h25.98l3.38-5.04-.6-2.85,2.15-4.13,2.99-2.55-1.09-.71Z"/><polygon class="cls-2" points="157.89 168.64 124.79 160.44 127.63 163.5 128.24 167.58 127.43 171.33 126.34 175.22 164.42 175.62 157.89 168.64"/></svg>