<?xml version="1.0" encoding="UTF-8"?><svg id="Layer_1" xmlns="http://www.w3.org/2000/svg" viewBox="0 0 200 200"><defs><style>.cls-1,.cls-2{opacity:.5;}.cls-1,.cls-2,.cls-3,.cls-4,.cls-5,.cls-6,.cls-7{stroke-width:0px;}.cls-1,.cls-3{fill:#4d6885;}.cls-2{fill:#85a2c1;}.cls-4{fill:#4d9c43;}.cls-5{fill:#1f68b1;}.cls-6{fill:#cff0cd;}.cls-7{fill:#c2d1e0;}</style></defs><ellipse class="cls-6" cx="82.82" cy="35.3" rx="36.21" ry="35.36"/><ellipse class="cls-6" cx="131.9" cy="60.09" rx="32.02" ry="30.08"/><ellipse class="cls-6" cx="54.39" cy="64.88" rx="34.71" ry="21.04"/><ellipse class="cls-6" cx="51.33" cy="149.27" rx="35.84" ry="48.67"/><ellipse class="cls-6" cx="69.66" cy="97.19" rx="23.04" ry="37.1"/><ellipse class="cls-6" cx="41.69" cy="100.91" rx="40.56" ry="23.75"/><ellipse class="cls-6" cx="111.25" cy="89.06" rx="56.86" ry="45.23"/><ellipse class="cls-6" cx="172.3" cy="101.94" rx="26.33" ry="24.78"/><ellipse class="cls-6" cx="154.05" cy="143.35" rx="38.01" ry="29.69"/><ellipse class="cls-6" cx="107.81" cy="164.32" rx="38.15" ry="33.1"/><path class="cls-6" d="M105.26,128.36c0,11.55-7.97,20.91-17.8,20.91s-17.8-9.36-17.8-20.91,7.97-20.92,17.8-20.92,17.8,9.37,17.8,20.92Z"/><path class="cls-2" d="M100.67,58.97l-9.31,125.61s1.83,3.07,7.81,2.87c5.99-.2,7.32-2.66,7.32-2.66V60.61l-5.82-1.64Z"/><polygon class="cls-3" points="106.49 54.64 111.46 54.64 111.46 57.79 114.47 67.23 119.27 111.29 117.47 113.15 109.81 71.67 106.49 54.64"/><path class="cls-1" d="M110.4,44.37v-3.37l25.89-13.9s6.2-1.26,5.06.84-26.94,19.59-26.94,19.59l-4.01.84v-4Z"/><polygon class="cls-3" points="105.85 45.41 100.15 40.36 87.97 33.09 51.32 11.76 49.64 13.97 96.13 45.41 105.85 45.41"/><path class="cls-7" d="M103.64,49.03s-1.42-3.08.47-4.8,3.44-3.73,5.82-2.7c2.38,1.03,2.76,2.56,2.76,2.56,0,0,1.47-.14.45,3.31-1.02,3.45-4.05,4.24-4.05,4.24,0,0-1.56,1.03-2.61,0s-2.85-2.61-2.85-2.61Z"/><polygon class="cls-5" points="103.07 47.05 97.22 53.39 96.59 61.05 97.68 61.63 101.68 58.94 106.14 60.73 107.86 59.09 106.94 53.92 108.58 52.18 103.07 47.05"/><polygon class="cls-3" points="91.92 184.62 101.24 59.65 103.1 59.65 94.65 184.62 91.92 184.62"/><path class="cls-2" d="M71.96,94.24l-5.67,86.23s1.11,2.11,4.76,1.97,4.45-1.83,4.45-1.83v-85.24l-3.54-1.13Z"/><polygon class="cls-3" points="75.51 91.27 78.53 91.27 78.53 93.43 80.36 99.91 83.29 130.16 82.19 131.43 77.53 102.96 75.51 91.27"/><path class="cls-1" d="M77.88,84.21v-2.31l15.76-9.54s3.78-.87,3.08.58-16.4,13.45-16.4,13.45l-2.44.58v-2.75Z"/><polygon class="cls-3" points="75.11 84.93 71.64 81.46 64.23 76.47 41.92 61.83 40.89 63.35 69.2 84.93 75.11 84.93"/><path class="cls-7" d="M73.77,87.41s-.86-2.11.29-3.3,2.1-2.56,3.55-1.86,1.68,1.76,1.68,1.76c0,0,.9-.1.28,2.27-.62,2.37-2.46,2.91-2.46,2.91,0,0-.95.7-1.59,0s-1.73-1.79-1.73-1.79Z"/><polygon class="cls-5" points="73.42 86.06 69.86 90.41 69.48 95.67 70.14 96.06 72.58 94.22 75.29 95.45 76.34 94.32 75.78 90.77 76.78 89.57 73.42 86.06"/><polygon class="cls-3" points="66.64 180.49 72.31 94.71 73.44 94.71 68.3 180.49 66.64 180.49"/><path class="cls-2" d="M132.44,106.95l-5.35,78.7s1.05,1.93,4.49,1.8c3.44-.13,4.2-1.67,4.2-1.67v-77.8l-3.34-1.03Z"/><polygon class="cls-3" points="135.78 104.24 138.64 104.24 138.64 106.21 140.36 112.13 143.12 139.73 142.09 140.89 137.69 114.91 135.78 104.24"/><path class="cls-1" d="M138.02,97.8v-2.11l14.87-8.71s3.56-.79,2.91.53-15.47,12.27-15.47,12.27l-2.3.53v-2.51Z"/><polygon class="cls-3" points="135.41 98.46 132.14 95.29 125.15 90.74 104.09 77.37 103.13 78.76 129.83 98.46 135.41 98.46"/><path class="cls-7" d="M134.14,100.72s-.82-1.93.27-3.01,1.98-2.34,3.34-1.69,1.59,1.61,1.59,1.61c0,0,.85-.09.26,2.07s-2.32,2.66-2.32,2.66c0,0-.89.64-1.5,0s-1.64-1.63-1.64-1.63Z"/><polygon class="cls-5" points="133.81 99.48 130.45 103.46 130.09 108.25 130.72 108.62 133.02 106.93 135.58 108.05 136.57 107.03 136.04 103.79 136.98 102.69 133.81 99.48"/><polygon class="cls-3" points="127.41 185.68 132.77 107.38 133.84 107.38 128.98 185.68 127.41 185.68"/><path class="cls-4" d="M125.08,195.74l-4.99-20.52s9.27,11.43,8.56,13.48,4.99-17,7.13-17-3.8,16.71,0,14.07c3.8-2.64,9.04-12.02,9.04-12.02,0,0,.48,19.93,2.62,19.34s-22.35,2.64-22.35,2.64Z"/><path class="cls-4" d="M67.59,184.77s-5.8-16.65-7.14-16.78,11.61,11.01,10.6,14.44l-1,3.44-2.46-1.1Z"/><path class="cls-4" d="M81.32,163.86s-14.29,20.22-10.21,20.5c4.07.28,7.09,0,7.09,0,0,0-1.56-13.21,3.13-20.5Z"/><path class="cls-4" d="M86.9,172.25l-8.71,12.11,7.03.69s-1.67-6.05,1.67-12.79Z"/><path class="cls-4" d="M93.81,189.28h8.44s-15.84-21.95-21.32-20.81,1.37,1.36,1.37,1.36c0,0,14.59,13.87,11.51,19.45Z"/><path class="cls-4" d="M101.06,167.33l-2.2,20.14,8.65,2.49s-7.37-15.24-6.45-22.63Z"/><path class="cls-4" d="M114.89,189.28h-8.86l13.01-18.88s-7.2,18.65-4.15,18.88Z"/></svg>